<svg xmlns="http://www.w3.org/2000/svg" version="1.1" xmlns:xlink="http://www.w3.org/1999/xlink" xmlns:svgjs="http://svgjs.dev/svgjs" width="1000" height="623" viewBox="0 0 1000 623"><g transform="matrix(1,0,0,1,-0.6060606060606233,0.2522267206477409)"><svg viewBox="0 0 396 247" data-background-color="#ffffff" preserveAspectRatio="xMidYMid meet" height="623" width="1000" xmlns="http://www.w3.org/2000/svg" xmlns:xlink="http://www.w3.org/1999/xlink"><g id="tight-bounds" transform="matrix(1,0,0,1,0.2400000000000091,-0.09999999999999432)"><svg viewBox="0 0 395.52 247.2" height="247.2" width="395.52"><g><svg></svg></g><g><svg viewBox="0 0 395.52 247.2" height="247.2" width="395.52"><g transform="matrix(1,0,0,1,174.86626022727273,47.215199999999996)"><svg viewBox="0 0 45.787479545454545 152.7696" height="152.7696" width="45.787479545454545"><g><svg viewBox="0 0 45.787479545454545 152.7696" height="152.7696" width="45.787479545454545"><g><svg viewBox="0 0 45.78747954545455 152.76960000000003" height="152.7696" width="45.787479545454545"><g><svg viewBox="0 0 45.78747954545455 152.76960000000003" height="152.76960000000003" width="45.78747954545455"><g id="textblocktransform"><svg viewBox="0 0 45.78747954545455 152.76960000000003" height="152.76960000000003" width="45.78747954545455" id="textblock"><g><svg viewBox="0 0 45.78747954545455 152.76960000000003" height="152.76960000000003" width="45.78747954545455"><g transform="matrix(1,0,0,1,0,0)"><svg width="45.78747954545455" viewBox="0.8 -35 10.549999999999999 35.2" height="152.76960000000003" data-palette-color="#fce44d"><path d="M3.35 0.2Q1.85 0.2 0.8 0L0.8 0 0.8-5Q1.6-4.8 2.6-4.8L2.6-4.8Q4.25-4.8 5.05-5.63 5.85-6.45 5.85-8.15L5.85-8.15 5.85-35 11.35-35 11.35-8.3Q11.35-4 9.38-1.9 7.4 0.2 3.35 0.2L3.35 0.2Z" opacity="1" transform="matrix(1,0,0,1,0,0)" fill="#fce44d" class="wordmark-text-0" data-fill-palette-color="primary" id="text-0"></path></svg></g></svg></g></svg></g></svg></g></svg></g></svg></g></svg></g><path d="M38.352 41.215L38.352 0 285.552 0 285.552 247.2 38.352 247.2 38.352 205.985 52.129 205.985 52.129 233.423 271.776 233.423 271.776 13.777 52.129 13.777 52.129 41.215Z" fill="#fce44d" stroke="transparent" data-fill-palette-color="primary"></path></svg></g><defs></defs></svg><rect width="395.52" height="247.2" fill="none" stroke="none" visibility="hidden"></rect></g></svg></g></svg>